# xmcd CD database file
#
# Track frame offsets:
#	187
#	5280
#	21852
#	39455
#	56705
#	72635
#	88705
#	107500
#	122915
#	139372
#	156422
#	171832
#	185867
#	200357
#	215305
#	238567
#	266530
#
# Disc length: 3781 seconds
#
# Revision: 0
# Processed by: cddbd v1.5.1PL0 Copyright (c) Steve Scherf et al.
# Submitted via: CDex 1.51
#
DISCID=f90ec311
DTITLE=solid base - the take off
DYEAR=1900
DGENRE=Dance
TTITLE0=INTRO
TTITLE1=SUNNY HOLIDAY
TTITLE2=KATIE
TTITLE3=COME'N GET ME
TTITLE4=OHBLADI OHBLADA
TTITLE5=MOTHER EARTH
TTITLE6=TRUST
TTITLE7=THE RIGHT WAY
TTITLE8=C'EST LA VIE
TTITLE9=U WON'T FORGET ME
TTITLE10=PLEASE TELL ME
TTITLE11=DIAMONDS ARE FOREVER
TTITLE12=TICKET TO FLY
TTITLE13=DON'T GIVE UP
TTITLE14=COME'N GET ME [PINOCCHIO REMIX]
TTITLE15=COME'N GET ME [KOSMIC REMIX]
TTITLE16=YOU NEVER KNOW [PEO DE PIT MIX]
EXTD=
EXTT0=
EXTT1=
EXTT2=
EXTT3=
EXTT4=
EXTT5=
EXTT6=
EXTT7=
EXTT8=
EXTT9=
EXTT10=
EXTT11=
EXTT12=
EXTT13=
EXTT14=
EXTT15=
EXTT16=
PLAYORDER=
